<?xml version="1.0" standalone="no"?>
<!DOCTYPE svg PUBLIC "-//W3C//DTD SVG 20010904//EN"
 "http://www.w3.org/TR/2001/REC-SVG-20010904/DTD/svg10.dtd">
<svg version="1.0" xmlns="http://www.w3.org/2000/svg"
 width="1578.000000pt" height="1578.000000pt" viewBox="0 0 1578.000000 1578.000000"
 preserveAspectRatio="xMidYMid meet">

<g transform="translate(0.000000,1578.000000) scale(0.100000,-0.100000)"
fill="#000000" stroke="none">
<path d="M0 7890 l0 -7890 7890 0 7890 0 0 7890 0 7890 -7890 0 -7890 0 0
-7890z m3880 1553 c175 -51 330 -105 361 -126 18 -12 36 -35 40 -50 27 -100
-162 -974 -304 -1407 -119 -362 -298 -756 -447 -981 -149 -225 -274 -369 -400
-459 -192 -138 -344 -199 -515 -207 -137 -7 -293 10 -395 42 -610 193 -997
789 -1165 1790 -59 355 -67 440 -72 825 -5 374 1 468 32 499 18 18 97 27 330
36 162 7 171 7 188 -12 15 -18 19 -55 27 -314 19 -578 90 -1090 199 -1430 113
-352 303 -631 491 -722 459 -223 852 110 1125 953 132 410 193 690 301 1395
16 107 31 176 41 187 18 20 38 18 163 -19z m6050 -108 c29 -35 112 -445 108
-531 -3 -51 -6 -60 -28 -71 -14 -6 -131 -39 -260 -72 -129 -33 -334 -85 -455
-116 -121 -32 -362 -92 -535 -135 -608 -150 -584 -146 -606 -100 -16 33 -59
262 -81 427 -14 108 -14 134 -4 147 17 20 68 35 526 151 403 102 885 225 1100
281 143 36 215 43 235 19z m-2675 -162 c128 -18 167 -32 190 -67 16 -24 16
-87 6 -913 -8 -659 -8 -941 1 -1095 12 -225 6 -293 -33 -342 -46 -58 -348
-266 -387 -266 -16 0 -40 16 -71 48 -104 105 -650 697 -961 1042 -102 113
-232 254 -290 315 -160 166 -204 215 -249 273 -23 28 -46 52 -51 52 -6 0 -15
-10 -20 -22 -11 -28 -66 -243 -110 -433 -32 -137 -106 -428 -176 -690 -19 -71
-46 -182 -58 -245 -13 -63 -42 -185 -64 -270 -22 -85 -45 -185 -51 -222 -15
-87 -35 -134 -61 -141 -31 -8 -154 36 -330 117 -192 88 -191 86 -165 217 10
52 38 173 62 269 25 96 56 220 69 275 14 55 59 240 101 410 215 880 355 1422
372 1445 26 35 50 45 191 74 216 45 249 36 376 -104 108 -119 284 -308 385
-415 497 -524 894 -958 919 -1004 14 -28 38 -27 45 2 15 69 21 258 36 1051 14
739 1 673 133 662 44 -4 131 -14 191 -23z m2684 -930 c27 -51 121 -477 121
-548 0 -19 -8 -39 -19 -49 -10 -9 -79 -32 -152 -51 -987 -249 -1265 -319
-1379 -349 -74 -19 -162 -42 -195 -51 -32 -8 -79 -15 -102 -15 -52 0 -55 5
-72 130 -7 47 -23 153 -37 237 -27 173 -30 226 -10 245 14 14 285 88 926 254
184 47 395 102 469 121 168 44 377 90 413 92 17 1 31 -6 37 -16z m20 -1110
c18 -35 111 -505 111 -565 0 -15 -8 -36 -18 -46 -19 -19 -34 -23 -357 -97
-110 -25 -218 -50 -240 -55 -22 -6 -132 -31 -245 -56 -317 -71 -540 -121 -715
-160 -175 -40 -284 -63 -301 -64 -5 0 -18 6 -28 13 -19 14 -20 24 -65 362 -5
44 -12 115 -15 157 -6 110 -5 111 184 157 612 151 971 233 1415 325 94 19 179
37 190 39 45 10 75 7 84 -10z m-3260 -1434 c46 -10 141 -55 141 -66 0 -21 -55
-183 -62 -183 -5 0 -30 11 -56 24 -117 59 -188 54 -257 -18 -70 -72 -104 -235
-85 -403 13 -115 34 -176 79 -223 61 -64 140 -73 264 -31 29 10 59 20 67 22
12 3 15 -13 18 -94 l3 -97 -44 -19 c-72 -31 -185 -44 -259 -31 -161 29 -256
135 -303 340 -24 104 -24 328 0 430 65 280 245 407 494 349z m3752 6 c54 -7
169 -59 169 -77 0 -25 -52 -178 -61 -178 -4 0 -35 13 -67 30 -202 102 -331
-29 -332 -336 0 -181 35 -291 111 -341 37 -24 52 -28 108 -27 42 1 92 11 139
27 l72 26 0 -100 0 -100 -42 -19 c-69 -30 -184 -43 -261 -30 -208 37 -316 225
-317 553 0 210 45 363 138 467 66 75 185 124 272 114 14 -2 46 -6 71 -9z
m-3271 -560 l0 -555 -90 0 -90 0 0 555 0 555 90 0 90 0 0 -555z m782 464 c2
-50 1 -95 -2 -100 -3 -4 -55 -10 -115 -11 l-110 -3 -3 -452 -2 -453 -90 0
c-65 0 -90 3 -90 13 0 6 -1 210 -3 452 l-2 440 -115 5 -115 5 -3 84 c-2 46 -1
90 2 98 4 10 68 13 325 13 l320 0 3 -91z m225 79 c5 -7 40 -89 76 -183 86
-221 97 -248 103 -242 3 3 43 101 89 219 l84 213 92 3 c51 1 95 -1 99 -5 4 -4
-46 -134 -112 -288 -175 -411 -159 -350 -161 -597 l-2 -213 -92 -3 -93 -3 0
216 c0 191 -2 221 -19 258 -33 73 -261 623 -261 630 0 13 187 8 197 -5z m1422
-20 c5 -18 31 -109 56 -203 26 -93 89 -325 141 -513 52 -189 94 -348 94 -353
0 -6 -41 -9 -97 -7 l-98 3 -30 125 -31 125 -155 3 -156 2 -22 -92 c-13 -51
-27 -110 -32 -130 l-10 -38 -100 0 c-91 0 -100 2 -95 18 23 79 276 1006 292
1067 6 25 7 25 119 25 l113 0 11 -32z m1736 -68 l0 -95 -115 -5 -115 -5 -2
-450 -1 -450 -91 -3 -91 -3 0 456 0 455 -115 0 -115 0 0 100 0 100 323 -2 322
-3 0 -95z m325 -455 l0 -555 -90 0 -90 0 0 555 0 555 90 0 90 0 0 -555z m305
533 c3 -13 39 -162 81 -333 42 -170 84 -352 94 -403 10 -52 20 -96 23 -98 2
-2 12 35 21 83 14 73 141 601 177 736 l10 37 89 0 c76 0 90 -2 90 -16 0 -9
-25 -112 -56 -228 -69 -260 -97 -366 -163 -618 -72 -277 -53 -248 -165 -248
-112 0 -104 -8 -140 136 -13 55 -40 160 -60 234 -126 474 -192 731 -188 735 3
3 45 5 93 5 84 0 89 -1 94 -22z m1197 15 c2 -5 1 -48 -2 -98 l-5 -90 -152 -3
-153 -3 0 -114 0 -115 145 0 c90 0 145 -4 145 -10 1 -5 1 -46 1 -90 0 -44 0
-84 -1 -90 0 -5 -59 -11 -142 -12 l-143 -3 0 -140 0 -140 153 -5 153 -5 1 -90
1 -90 -246 -3 -247 -2 0 555 0 555 244 0 c135 0 246 -3 248 -7z"/>
<path d="M9475 5468 c-2 -13 -24 -108 -49 -213 -24 -104 -42 -193 -39 -197 2
-5 49 -8 104 -8 72 0 99 3 100 13 1 25 -96 427 -103 427 -4 0 -10 -10 -13 -22z"/>
</g>
</svg>
